<svg width="160" height="60" viewBox="0 0 160 60" fill="none" xmlns="http://www.w3.org/2000/svg">
<rect x="0.5" y="0.5" width="159" height="59" rx="5.5" stroke="#1B1B1B"/>
<g opacity="0.3" clip-path="url(#clip0_216_184)">
<path d="M59.6153 23.6764L64.1923 23.6761C68.1118 23.6758 70.5902 26.2044 70.5904 30.1492C70.5907 34.094 68.1254 36.6229 64.1932 36.6232L59.6162 36.6235L59.6153 23.6764ZM64.0919 34.2588C66.5574 34.2587 67.9102 32.6781 67.91 30.162C67.9098 27.6333 66.5568 26.0529 64.0913 26.0531L62.2959 26.0532L62.2965 34.2589L64.0919 34.2588Z" fill="white"/>
<path d="M77.5318 29.7821C77.1777 29.5671 76.7099 29.466 76.2168 29.4661C75.3318 29.4661 74.6111 29.934 74.4215 30.7938L74.4219 36.6351L71.8173 36.6353L71.8167 27.2031L74.4339 27.203L74.434 28.1259C74.8385 27.4558 75.6098 26.9879 76.5454 26.9879C76.9879 26.9878 77.3925 27.0763 77.5316 27.1522L77.5318 29.7821Z" fill="white"/>
<rect x="9.5" y="2.5" width="159" height="59" rx="5.5" stroke="#1B1B1B"/>
<path d="M82.7541 36.8495C80.0104 36.8497 78.1264 34.8268 78.1262 31.9314C78.126 29.0234 80.0098 26.9876 82.7534 26.9875C85.4971 26.9873 87.3685 29.0101 87.3687 31.9308C87.3689 34.8262 85.4978 36.8493 82.7541 36.8495ZM82.7536 29.2127C81.4386 29.2128 80.7307 30.3508 80.7308 31.9313C80.7309 33.4864 81.4517 34.637 82.754 34.6369C84.0563 34.6368 84.7769 33.4988 84.7768 31.931C84.7767 30.3505 84.0559 29.2127 82.7536 29.2127Z" fill="white"/>
<path d="M91.1118 40.1237L88.4945 40.1239L88.4937 27.202L91.1109 27.2018L91.111 27.9858C91.5282 27.48 92.4638 26.9995 93.4753 26.9994C96.2189 26.9992 97.7743 29.275 97.7744 31.9428C97.7746 34.598 96.2196 36.8613 93.4759 36.8615C92.4644 36.8615 91.5288 36.3811 91.1115 35.8754L91.1118 40.1237ZM91.1113 33.4731C91.4275 34.1306 92.1229 34.573 92.8815 34.573C94.2976 34.5729 95.1447 33.4349 95.1446 31.9303C95.1445 30.4131 94.2973 29.2752 92.8812 29.2753C92.0973 29.2753 91.4272 29.7432 91.1111 30.3754L91.1113 33.4731Z" fill="white"/>
<path d="M101.543 36.6333L98.9001 36.6335L98.8992 22.9151L101.542 22.9149L101.542 27.985C101.959 27.4793 102.895 26.9987 103.906 26.9987C106.65 26.9985 108.193 29.2363 108.193 31.9421C108.193 34.6478 106.651 36.8606 103.907 36.8607C102.896 36.8608 101.96 36.3804 101.543 35.8747L101.543 36.6333ZM101.542 33.4724C101.833 34.1298 102.529 34.5723 103.313 34.5723C104.729 34.5722 105.576 33.4342 105.576 31.9296C105.576 30.4124 104.728 29.2745 103.312 29.2746C102.554 29.2746 101.833 29.7425 101.542 30.3747L101.542 33.4724Z" fill="white"/>
<path d="M113.756 36.8727C111.013 36.8729 109.129 34.8501 109.128 31.9547C109.128 29.0466 111.012 27.0109 113.756 27.0107C116.499 27.0105 118.371 29.0334 118.371 31.954C118.371 34.8494 116.487 36.8726 113.756 36.8727ZM113.756 29.236C112.441 29.2361 111.733 30.374 111.733 31.9545C111.733 33.5097 112.454 34.6602 113.756 34.6601C115.059 34.66 115.779 33.522 115.779 31.9542C115.779 30.3738 115.058 29.2359 113.756 29.236Z" fill="white"/>
<path d="M124.25 31.764L127.69 36.6442L124.794 36.6444L122.771 33.6859L120.723 36.6447L117.979 36.6449L121.38 31.8274L118.181 27.2127L121.076 27.2125L122.897 29.8928L124.743 27.2122L127.487 27.212L124.25 31.764Z" fill="white"/>
<path d="M39.9414 19.2398L33.1268 23.6276L37.8431 27.433L44.6957 23.1969L39.9414 19.2398Z" fill="white"/>
<path d="M33.1273 31.1506L39.9425 35.626L44.6963 31.6682L37.8431 27.433L33.1273 31.1506Z" fill="white"/>
<path d="M44.6963 31.6682L49.4506 35.6253L56.2399 31.1996L51.5362 27.4321L44.6963 31.6682Z" fill="white"/>
<path d="M56.2394 23.664L49.4495 19.2392L44.6957 23.1969L51.5362 27.4321L56.2394 23.664Z" fill="white"/>
<path d="M44.709 32.5153L39.9426 36.4731L37.8942 35.1457L37.8943 36.6376L44.7095 40.7211L51.5116 36.6367L51.5115 35.1447L49.4759 36.4725L44.709 32.5153Z" fill="white"/>
</g>
<defs>
<clipPath id="clip0_216_184">
<rect width="94.8276" height="22" fill="white" transform="translate(33 19)"/>
</clipPath>
</defs>
</svg>
