<svg width="160" height="60" viewBox="0 0 160 60" fill="none" xmlns="http://www.w3.org/2000/svg">
<rect x="0.5" y="0.5" width="159" height="59" rx="5.5" stroke="#1B1B1B"/>
<g opacity="0.3" clip-path="url(#clip0_216_172)">
<path fill-rule="evenodd" clip-rule="evenodd" d="M39.2314 34.7486L42.1655 32.5009C43.7238 34.5351 45.3786 35.4725 47.2225 35.4724C49.0562 35.4722 50.6654 34.5455 52.1536 32.5271L55.1284 34.7206C52.9827 37.6307 50.3129 39.1682 47.2227 39.1684C44.1428 39.1686 41.4481 37.6423 39.2314 34.7486Z" fill="white"/>
<path fill-rule="evenodd" clip-rule="evenodd" d="M47.2124 24.98L41.9902 29.4805L39.5773 26.6807L47.2225 20.0921L54.809 26.6848L52.3847 29.4747L47.2124 24.98Z" fill="white"/>
<path d="M75.1571 23.8894L72.2003 23.8896L72.2011 36.2099L75.158 36.2097L75.1571 23.8894Z" fill="white"/>
<path fill-rule="evenodd" clip-rule="evenodd" d="M66.2253 36.2646C64.4822 36.2648 63.0296 35.7 61.8514 34.5703C60.6731 33.4245 60.092 31.9558 60.0918 30.1643C60.0917 28.3567 60.6888 26.8718 61.8669 25.7097C63.0612 24.5314 64.5137 23.9503 66.2406 23.9502C68.371 23.95 70.2594 24.8699 71.3569 26.3062L69.4365 28.3238C68.5164 27.3393 67.5158 26.8391 66.4345 26.8392C65.5145 26.8392 64.756 27.1459 64.1266 27.7754C63.5133 28.4049 63.2067 29.1957 63.2068 30.148C63.2069 31.0679 63.5136 31.8426 64.1269 32.472C64.7564 33.0853 65.515 33.3919 66.4188 33.3918C67.597 33.3917 68.6298 32.8752 69.4851 31.8583L71.4867 33.7788C70.938 34.5051 70.1955 35.1023 69.2755 35.5704C68.3558 36.0386 67.3389 36.2646 66.2253 36.2646Z" fill="white"/>
<path fill-rule="evenodd" clip-rule="evenodd" d="M79.5922 24.8748C79.5923 25.7593 78.8755 26.4765 77.9909 26.4765C77.1062 26.4766 76.3891 25.7595 76.389 24.875C76.389 23.9904 77.106 23.2733 77.9907 23.2732C78.8753 23.2732 79.5922 23.9902 79.5922 24.8748ZM79.4692 27.2156L76.5124 27.2158L76.513 36.2096L79.4698 36.2094L79.4692 27.2156Z" fill="white"/>
<path fill-rule="evenodd" clip-rule="evenodd" d="M85.1854 36.2795C83.7814 36.2796 82.6515 35.8439 81.7639 34.9724C80.8922 34.1009 80.4562 32.9873 80.4561 31.6155C80.456 30.2436 80.8919 29.13 81.7794 28.2584C82.6671 27.3868 83.8129 26.9509 85.2332 26.9509C87.0894 26.9507 88.7194 27.8544 89.478 29.549L87.2024 30.7435C86.7505 29.985 86.1212 29.5977 85.298 29.5977C84.7009 29.5978 84.2166 29.7915 83.8294 30.1788C83.4581 30.5662 83.2645 31.0504 83.2645 31.6153C83.2646 32.7935 84.12 33.665 85.2661 33.6649C86.089 33.6648 86.8475 33.2129 87.1704 32.5188L89.4461 33.8744C88.6714 35.3593 87.0738 36.2794 85.1854 36.2795Z" fill="white"/>
<path fill-rule="evenodd" clip-rule="evenodd" d="M93.1449 23.8883L90.1881 23.8885L90.1889 36.2087L93.1457 36.2085L93.1455 33.0721L93.4919 32.749L96.195 36.2083L99.6347 36.2081L95.4816 30.8932L99.4263 27.2143L95.8133 27.2145L93.1453 29.7029L93.1449 23.8883Z" fill="white"/>
<path fill-rule="evenodd" clip-rule="evenodd" d="M100.168 31.5525L100.167 23.8878L103.247 23.8876L103.248 31.3806C103.248 32.7202 104.029 33.3657 105.158 33.3657C106.27 33.3656 107.067 32.6877 107.067 31.3804L107.067 23.8873L110.147 23.8871L110.147 31.5518C110.147 35.0702 107.677 36.3938 105.158 36.394C102.655 36.3941 100.168 35.0709 100.168 31.5525Z" fill="white"/>
<path fill-rule="evenodd" clip-rule="evenodd" d="M116.801 36.4533C119.182 36.4531 121.113 34.357 121.112 31.7713C121.112 29.1857 119.181 27.0897 116.8 27.0899C115.829 27.09 114.934 27.4383 114.213 28.026L114.213 27.2133L111.379 27.2135L111.38 39.9033L114.214 39.9032L114.213 35.5175C114.934 36.1052 115.83 36.4534 116.801 36.4533ZM114.213 31.7766L114.213 31.7669C114.215 30.6124 115.124 29.6773 116.246 29.6772C117.368 29.6771 118.279 30.6148 118.279 31.7715C118.279 32.9282 117.369 33.866 116.246 33.8661C115.125 33.8661 114.216 32.9311 114.213 31.7766Z" fill="white"/>
</g>
<defs>
<clipPath id="clip0_216_172">
<rect width="82.3188" height="20" fill="white" transform="translate(39 20)"/>
</clipPath>
</defs>
</svg>
