<svg width="160" height="60" viewBox="0 0 160 60" fill="none" xmlns="http://www.w3.org/2000/svg">
<rect x="0.5" y="0.5" width="159" height="59" rx="5.5" stroke="#1B1B1B"/>
<g opacity="0.3" clip-path="url(#clip0_216_214)">
<path d="M67.0091 30.6153C67.0117 29.4788 66.6629 28.3693 66.0102 27.4388C65.3577 26.5083 64.4333 25.8023 63.3639 25.4176C63.4612 24.9216 63.5102 24.4173 63.5103 23.9118C63.5112 22.2386 62.9813 20.6083 61.9972 19.2552C61.013 17.9021 59.6252 16.8959 58.033 16.3813C56.4411 15.8667 54.7267 15.8702 53.1368 16.3913C51.5468 16.9124 50.163 17.9243 49.1844 19.2814C48.4623 18.7219 47.5776 18.413 46.6642 18.4014C45.7507 18.3899 44.8584 18.6763 44.1224 19.2174C43.3864 19.7584 42.8468 20.5246 42.5852 21.3998C42.3237 22.2751 42.3546 23.2117 42.6731 24.0679C41.6012 24.4587 40.6747 25.1683 40.0182 26.1014C39.3617 27.0345 39.0067 28.1463 39.0009 29.2872C38.998 30.4276 39.3487 31.5409 40.0047 32.4737C40.6608 33.4066 41.5898 34.1133 42.664 34.4962C42.569 34.9921 42.5205 35.4956 42.5193 36.0004C42.5178 37.6716 43.0471 39.3002 44.0309 40.6513C45.0146 42.0022 46.4021 43.0059 47.9931 43.5176C49.5841 44.0291 51.2964 44.0223 52.8833 43.4979C54.4701 42.9736 55.8494 41.9588 56.8223 40.5999C57.5424 41.1609 58.4256 41.4716 59.3382 41.4852C60.2508 41.4988 61.1429 41.2143 61.8791 40.6751C62.6156 40.1358 63.156 39.3711 63.4183 38.4971C63.6808 37.6228 63.6512 36.6871 63.3337 35.8314C64.4061 35.4412 65.3333 34.7317 65.9901 33.7986C66.6471 32.8654 67.002 31.7533 67.0075 30.612" fill="white"/>
<path d="M50.0119 28.0148L56.1412 30.8128L62.3269 25.3947C62.4159 24.9477 62.4601 24.4928 62.4586 24.037C62.4582 22.5613 61.9855 21.1245 61.1097 19.9368C60.2339 18.7491 59.001 17.8728 57.5913 17.4363C56.1816 16.9997 54.6693 17.0258 53.2755 17.5107C51.8817 17.9955 50.6797 18.9137 49.8454 20.1309L48.8153 25.4607L50.0119 28.0148Z" fill="black"/>
<path d="M43.6684 34.5057C43.5781 34.9598 43.5329 35.4216 43.5334 35.8846C43.5336 37.3665 44.0087 38.8093 44.8891 40.0012C45.7694 41.1932 47.0087 42.0715 48.425 42.5074C49.8413 42.9433 51.36 42.9137 52.7583 42.423C54.1565 41.9324 55.3607 41.0063 56.1939 39.781L57.2142 34.4625L55.8515 31.858L49.6995 29.0551L43.6684 34.5057Z" fill="black"/>
<path d="M43.6303 23.8999L47.8303 24.891L48.7498 20.1147C48.1785 19.6816 47.4823 19.4451 46.7654 19.4408C46.0485 19.4365 45.3494 19.6645 44.773 20.0907C44.1965 20.517 43.7736 21.1184 43.5676 21.8051C43.3616 22.4918 43.3836 23.2268 43.6303 23.8999Z" fill="black"/>
<path d="M43.2657 24.8995C42.3442 25.2105 41.5425 25.801 40.9722 26.5888C40.4018 27.3766 40.0912 28.3225 40.0834 29.295C40.0828 30.235 40.3683 31.1528 40.902 31.9266C41.4356 32.7004 42.1921 33.2934 43.0709 33.6267L48.9636 28.2998L47.8809 25.9882L43.2657 24.8995Z" fill="black"/>
<path d="M57.2716 39.7809C57.842 40.2117 58.5365 40.4468 59.2513 40.4504C59.9661 40.4541 60.663 40.2267 61.2378 39.8018C61.8127 39.3768 62.2347 38.7773 62.4409 38.0927C62.6469 37.4083 62.626 36.6754 62.3813 36.0038L58.1845 35.0273L57.2716 39.7809Z" fill="black"/>
<path d="M58.1243 33.922L62.7443 35.001C63.6664 34.6908 64.4686 34.1006 65.0391 33.3125C65.6096 32.5246 65.9198 31.5782 65.9266 30.6054C65.9257 29.6675 65.6396 28.752 65.1065 27.9804C64.5731 27.2088 63.8179 26.6175 62.9407 26.2851L56.8983 31.5763L58.1243 33.922Z" fill="black"/>
<path d="M78.1622 35.5974L78.7222 35.5403L78.7613 36.6799C77.5152 36.8681 76.2578 36.9716 74.9976 36.9894C73.6086 36.9895 72.6241 36.5875 72.0445 35.7834C71.465 34.9792 71.1756 33.7279 71.1766 32.0295C71.1764 28.6467 72.5209 26.9546 75.2102 26.9534C76.5126 26.9533 77.4839 27.3168 78.1243 28.0439C78.7647 28.771 79.086 29.9105 79.0882 31.4624L79.0118 32.5629L72.6434 32.5633C72.6435 33.6312 72.8368 34.4224 73.2231 34.9368C73.6096 35.4512 74.2813 35.7083 75.2385 35.7083C76.198 35.7114 77.1724 35.6744 78.1622 35.5974ZM77.641 31.4104C77.6409 30.2264 77.4515 29.3902 77.0727 28.9019C76.6938 28.4135 76.0764 28.1688 75.2201 28.1678C74.3638 28.1678 73.7203 28.4251 73.2894 28.9395C72.8587 29.454 72.6367 30.2777 72.6238 31.4108L77.641 31.4104Z" fill="white"/>
<path d="M81.1072 36.9125L81.1063 24.2148L82.5535 24.2147L82.5544 36.9124L81.1072 36.9125Z" fill="white"/>
<path d="M91.6686 30.0583L91.6689 34.9258C91.669 35.4141 92.8704 35.388 92.8704 35.388L92.7972 36.6675C91.7798 36.6676 90.9381 36.7523 90.4335 36.2624C89.3407 36.7479 88.1569 36.9949 86.9612 36.987C86.0745 36.9871 85.3989 36.7359 84.9344 36.2334C84.4699 35.7309 84.2381 35.0088 84.2391 34.0667C84.2391 33.1269 84.4772 32.4351 84.9536 31.9911C85.4301 31.5472 86.1761 31.2758 87.192 31.177L90.2215 30.8886L90.2214 30.0584C90.2214 29.4073 90.0802 28.9373 89.7981 28.6487C89.6434 28.5036 89.4611 28.3912 89.2618 28.3185C89.0625 28.2458 88.8508 28.2142 88.639 28.2255L84.8362 28.2258L84.8361 26.9511L88.5428 26.9509C89.6368 26.9508 90.4312 27.202 90.9261 27.7044C91.4211 28.2069 91.6686 28.9915 91.6686 30.0583ZM85.7221 33.995C85.7222 35.179 86.2106 35.771 87.1874 35.7709C88.0686 35.7699 88.9432 35.6196 89.7741 35.3263L90.2169 35.1717L90.2167 31.9875L87.3662 32.2579C86.7867 32.31 86.3683 32.4773 86.1111 32.7594C85.8539 33.0415 85.7242 33.4534 85.7221 33.995Z" fill="white"/>
<path d="M97.3189 28.2445C95.9156 28.2446 95.214 28.733 95.2141 29.7097C95.2141 30.1612 95.377 30.4797 95.7026 30.6653C96.0281 30.8508 96.7614 31.044 97.9019 31.2447C99.048 31.4454 99.8587 31.7253 100.334 32.0845C100.809 32.4437 101.048 33.1187 101.049 34.1096C101.049 35.1014 100.731 35.8286 100.093 36.291C99.4564 36.7534 98.5269 36.9851 97.3048 36.9863C96.5072 36.9864 93.8439 36.6903 93.8439 36.6903L93.9219 35.4368C95.4522 35.5832 96.5575 35.6922 97.3047 35.6921C98.052 35.6921 98.6201 35.5732 99.0124 35.3355C99.4047 35.0978 99.6 34.699 99.6 34.139C99.6 33.579 99.4371 33.1997 99.0985 32.9995C98.7599 32.7992 98.0306 32.6105 96.8992 32.4298C95.7678 32.2492 94.9619 31.9855 94.4866 31.6388C94.0112 31.2921 93.7719 30.6475 93.7718 29.7082C93.7717 28.7689 94.0973 28.0803 94.7663 27.6244C95.4353 27.1685 96.2558 26.9487 97.2456 26.9486C98.0302 26.9486 100.754 27.1486 100.754 27.1486L100.754 28.4103C99.3163 28.3469 98.141 28.2444 97.3189 28.2445Z" fill="white"/>
<path d="M108.024 28.3968L104.955 28.397L104.956 33.0105C104.956 34.1163 105.036 34.843 105.197 35.1902C105.36 35.5386 105.741 35.7111 106.345 35.7111L108.062 35.5954L108.16 36.7919C107.509 36.9122 106.851 36.9834 106.19 37.0053C105.187 37.0053 104.493 36.7607 104.106 36.2712C103.72 35.7817 103.527 34.849 103.528 33.4729L103.528 28.3971L102.164 28.3972L102.164 27.1437L103.534 27.1436L103.534 24.1906L104.962 24.1905L104.962 27.1435L108.024 27.1433L108.024 28.3968Z" fill="white"/>
<path d="M110.036 25.9108L110.036 24.2308L111.483 24.2307L111.483 25.9107L110.036 25.9108ZM110.037 36.9106L110.036 27.1432L111.483 27.1431L111.484 36.9105L110.037 36.9106Z" fill="white"/>
<path d="M117.752 26.9489C118.475 26.9797 119.195 27.0574 119.908 27.1815L120.37 27.2385L120.313 28.4155C119.557 28.3197 118.796 28.2621 118.034 28.2431C116.94 28.2431 116.197 28.5036 115.806 29.0246C115.414 29.5456 115.217 30.5104 115.216 31.9191C115.217 33.33 115.4 34.3109 115.767 34.8623C116.134 35.4136 116.899 35.6903 118.062 35.6924L120.341 35.5196L120.4 36.7162C119.513 36.8665 118.617 36.9569 117.717 36.9866C116.213 36.9867 115.174 36.6004 114.601 35.8277C114.028 35.055 113.742 33.7527 113.742 31.9208C113.741 30.0878 114.05 28.8012 114.668 28.061C115.285 27.3208 116.313 26.9501 117.752 26.9489Z" fill="white"/>
</g>
<defs>
<clipPath id="clip0_216_214">
<rect width="81.3953" height="28" fill="white" transform="translate(39 16)"/>
</clipPath>
</defs>
</svg>
